<svg width="32" height="32" viewBox="0 0 32 32" fill="none" xmlns="http://www.w3.org/2000/svg">
<path fill-rule="evenodd" clip-rule="evenodd" d="M0 15.894C0 7.116 7.16344 0 16 0C24.8366 0 32 7.116 32 15.894C32 24.6721 24.8366 31.7881 16 31.7881C7.16344 31.7881 0 24.6721 0 15.894ZM8 16.0605C8 11.686 11.5718 8.13775 15.9755 8.13775C20.3792 8.13775 23.951 11.686 24 16.0605C24 19.5601 21.7492 22.525 18.5688 23.5943C18.1774 23.6429 18.0306 23.3999 18.0306 23.2055V21.0182C18.0306 20.2892 17.7859 19.8031 17.4924 19.5601C19.2538 19.3657 21.1132 18.7338 21.1132 15.6716C21.1132 14.7967 20.7706 14.0676 20.2814 13.533C20.2852 13.5177 20.2906 13.4985 20.297 13.4756C20.3719 13.2072 20.5892 12.4283 20.1835 11.4429C20.1835 11.4429 19.4985 11.2485 17.9816 12.2692C17.3456 12.1234 16.6605 12.0262 15.9755 12.0262C15.2905 12.0262 14.6055 12.0748 13.9694 12.2692C12.4526 11.2485 11.7676 11.4429 11.7676 11.4429C11.3351 12.493 11.6105 13.3088 11.6669 13.4758L11.6697 13.4844C11.1315 14.0676 10.8379 14.7481 10.8379 15.623C10.8379 18.6852 12.6973 19.3657 14.4587 19.5601C14.263 19.7545 14.0184 20.0947 13.9694 20.6294C13.5291 20.8238 12.4037 21.1641 11.6697 19.9489C11.6697 19.9489 11.2294 19.1712 10.4465 19.1226C10.4465 19.1226 9.66364 19.1226 10.3976 19.6087C10.3976 19.6087 10.9358 19.8517 11.2783 20.7752C11.2783 20.7752 11.7676 22.3306 13.9694 21.8445V23.2055C13.9694 23.3999 13.8226 23.6429 13.4312 23.5943C10.2997 22.525 8 19.5601 8 16.0605Z" fill="#AACE9B"/>
</svg>
