<svg width="32" height="33" viewBox="0 0 32 33" fill="none" xmlns="http://www.w3.org/2000/svg">
<path fill-rule="evenodd" clip-rule="evenodd" d="M0 16.1324C0 7.29589 7.16344 0.132446 16 0.132446C24.8366 0.132446 32 7.29589 32 16.1324C32 24.969 24.8366 32.1324 16 32.1324C7.16344 32.1324 0 24.969 0 16.1324ZM8.2 13.4324V24.1324H11.6V13.4324H8.2ZM8 10.0324C8 11.1324 8.8 11.9324 9.9 11.9324C11 11.9324 11.8 11.1324 11.8 10.0324C11.8 8.93245 11 8.13245 9.9 8.13245C8.9 8.13245 8 8.93245 8 10.0324ZM20.6 24.1324H23.8V17.5324C23.8 14.2324 21.8 13.1324 19.9 13.1324C18.2 13.1324 17 14.2324 16.7 14.9324V13.4324H13.5V24.1324H16.9V18.4324C16.9 16.9324 17.9 16.1324 18.9 16.1324C19.9 16.1324 20.6 16.6324 20.6 18.3324V24.1324Z" fill="#AACE9B"/>
</svg>
